# xmcd
#
# Track frame offsets:
#	150
#	17441
#	37190
#	52245
#	71996
#	92648
#	111486
#	128787
#	148551
#	163650
#	183410
#	204073
#
# Disc length: 2972
#
# Revision: 2
# Processed by: cddbd v1.5.2PL0 Copyright (c) Steve Scherf et al.
# Submitted via: kJams Lite (development) 1.0patch49.47
#
DISCID=ae0b9a0c
DTITLE=Karaoke Country Hot Hits - CB20190
DYEAR=2000
DGENRE=Karaoke
TTITLE0=Keith, Toby - Country Comes to Town (Guide Vocals)
TTITLE1=Gill, Vince - Feels Like Love (Guide Vocals)
TTITLE2=Lawrence, Tracy - Lonely (Guide Vocals)
TTITLE3=Gilman, Billy - One Voice (Guide Vocals)
TTITLE4=Big House - Buck These Haggard Blues (Guide Vocals)
TTITLE5=Daniels, Charlie - Road Dogs (Guide Vocals)
TTITLE6=Keith, Toby - Country Comes to Town
TTITLE7=Gill, Vince - Feel Like Love 
TTITLE8=Lawrence, Tracy - Lonely
TTITLE9=Gilman, Billy - One Voice
TTITLE10=Big House - Buck These Haggard Blues
TTITLE11=Daniels, Charlie - Road Dogs
EXTD=
EXTT0=
EXTT1=
EXTT2=
EXTT3=
EXTT4=
EXTT5=
EXTT6=
EXTT7=
EXTT8=
EXTT9=
EXTT10=
EXTT11=
PLAYORDER=
